<svg id="visual" viewBox="0 0 900 600" width="900" height="600" xmlns="http://www.w3.org/2000/svg" xmlns:xlink="http://www.w3.org/1999/xlink" version="1.1"><rect x="0" y="0" width="900" height="600" fill="#0d1216"></rect><path d="M0 354L21.5 355.2C43 356.3 86 358.7 128.8 360.3C171.7 362 214.3 363 257.2 372.2C300 381.3 343 398.7 385.8 401.7C428.7 404.7 471.3 393.3 514.2 390.5C557 387.7 600 393.3 642.8 403.5C685.7 413.7 728.3 428.3 771.2 430.7C814 433 857 423 878.5 418L900 413L900 601L878.5 601C857 601 814 601 771.2 601C728.3 601 685.7 601 642.8 601C600 601 557 601 514.2 601C471.3 601 428.7 601 385.8 601C343 601 300 601 257.2 601C214.3 601 171.7 601 128.8 601C86 601 43 601 21.5 601L0 601Z" fill="#6a41be"></path><path d="M0 460L21.5 453.8C43 447.7 86 435.3 128.8 437.3C171.7 439.3 214.3 455.7 257.2 457.2C300 458.7 343 445.3 385.8 432.5C428.7 419.7 471.3 407.3 514.2 410.2C557 413 600 431 642.8 431C685.7 431 728.3 413 771.2 408.2C814 403.3 857 411.7 878.5 415.8L900 420L900 601L878.5 601C857 601 814 601 771.2 601C728.3 601 685.7 601 642.8 601C600 601 557 601 514.2 601C471.3 601 428.7 601 385.8 601C343 601 300 601 257.2 601C214.3 601 171.7 601 128.8 601C86 601 43 601 21.5 601L0 601Z" fill="#5d3ec0"></path><path d="M0 446L21.5 453.7C43 461.3 86 476.7 128.8 485.8C171.7 495 214.3 498 257.2 501C300 504 343 507 385.8 503C428.7 499 471.3 488 514.2 484.8C557 481.7 600 486.3 642.8 485.8C685.7 485.3 728.3 479.7 771.2 479.8C814 480 857 486 878.5 489L900 492L900 601L878.5 601C857 601 814 601 771.2 601C728.3 601 685.7 601 642.8 601C600 601 557 601 514.2 601C471.3 601 428.7 601 385.8 601C343 601 300 601 257.2 601C214.3 601 171.7 601 128.8 601C86 601 43 601 21.5 601L0 601Z" fill="#4c3cc3"></path><path d="M0 526L21.5 522.7C43 519.3 86 512.7 128.8 510.7C171.7 508.7 214.3 511.3 257.2 516C300 520.7 343 527.3 385.8 527.8C428.7 528.3 471.3 522.7 514.2 520.7C557 518.7 600 520.3 642.8 522.3C685.7 524.3 728.3 526.7 771.2 521.5C814 516.3 857 503.7 878.5 497.3L900 491L900 601L878.5 601C857 601 814 601 771.2 601C728.3 601 685.7 601 642.8 601C600 601 557 601 514.2 601C471.3 601 428.7 601 385.8 601C343 601 300 601 257.2 601C214.3 601 171.7 601 128.8 601C86 601 43 601 21.5 601L0 601Z" fill="#363ac6"></path><path d="M0 562L21.5 559C43 556 86 550 128.8 548C171.7 546 214.3 548 257.2 546C300 544 343 538 385.8 541.8C428.7 545.7 471.3 559.3 514.2 559.3C557 559.3 600 545.7 642.8 537.5C685.7 529.3 728.3 526.7 771.2 530C814 533.3 857 542.7 878.5 547.3L900 552L900 601L878.5 601C857 601 814 601 771.2 601C728.3 601 685.7 601 642.8 601C600 601 557 601 514.2 601C471.3 601 428.7 601 385.8 601C343 601 300 601 257.2 601C214.3 601 171.7 601 128.8 601C86 601 43 601 21.5 601L0 601Z" fill="#0138c9"></path></svg>