<svg id="visual" viewBox="0 0 900 600" width="900" height="600" xmlns="http://www.w3.org/2000/svg" xmlns:xlink="http://www.w3.org/1999/xlink" version="1.1"><rect x="0" y="0" width="900" height="600" fill="#3292e0"></rect><path d="M0 332L21.5 334.3C43 336.7 86 341.3 128.8 339.2C171.7 337 214.3 328 257.2 321C300 314 343 309 385.8 313.7C428.7 318.3 471.3 332.7 514.2 321.8C557 311 600 275 642.8 261.3C685.7 247.7 728.3 256.3 771.2 274.3C814 292.3 857 319.7 878.5 333.3L900 347L900 0L878.5 0C857 0 814 0 771.2 0C728.3 0 685.7 0 642.8 0C600 0 557 0 514.2 0C471.3 0 428.7 0 385.8 0C343 0 300 0 257.2 0C214.3 0 171.7 0 128.8 0C86 0 43 0 21.5 0L0 0Z" fill="#3292e0"></path><path d="M0 248L21.5 242C43 236 86 224 128.8 221.3C171.7 218.7 214.3 225.3 257.2 233.3C300 241.3 343 250.7 385.8 259.2C428.7 267.7 471.3 275.3 514.2 271.8C557 268.3 600 253.7 642.8 234.2C685.7 214.7 728.3 190.3 771.2 191C814 191.7 857 217.3 878.5 230.2L900 243L900 0L878.5 0C857 0 814 0 771.2 0C728.3 0 685.7 0 642.8 0C600 0 557 0 514.2 0C471.3 0 428.7 0 385.8 0C343 0 300 0 257.2 0C214.3 0 171.7 0 128.8 0C86 0 43 0 21.5 0L0 0Z" fill="#2470a7"></path><path d="M0 203L21.5 203.7C43 204.3 86 205.7 128.8 196.8C171.7 188 214.3 169 257.2 157.3C300 145.7 343 141.3 385.8 143C428.7 144.7 471.3 152.3 514.2 166.8C557 181.3 600 202.7 642.8 198.5C685.7 194.3 728.3 164.7 771.2 152C814 139.3 857 143.7 878.5 145.8L900 148L900 0L878.5 0C857 0 814 0 771.2 0C728.3 0 685.7 0 642.8 0C600 0 557 0 514.2 0C471.3 0 428.7 0 385.8 0C343 0 300 0 257.2 0C214.3 0 171.7 0 128.8 0C86 0 43 0 21.5 0L0 0Z" fill="#1e4f72"></path><path d="M0 154L21.5 147.8C43 141.7 86 129.3 128.8 119.5C171.7 109.7 214.3 102.3 257.2 106.7C300 111 343 127 385.8 138.3C428.7 149.7 471.3 156.3 514.2 145.7C557 135 600 107 642.8 95.2C685.7 83.3 728.3 87.7 771.2 93.5C814 99.3 857 106.7 878.5 110.3L900 114L900 0L878.5 0C857 0 814 0 771.2 0C728.3 0 685.7 0 642.8 0C600 0 557 0 514.2 0C471.3 0 428.7 0 385.8 0C343 0 300 0 257.2 0C214.3 0 171.7 0 128.8 0C86 0 43 0 21.5 0L0 0Z" fill="#183041"></path><path d="M0 46L21.5 47.2C43 48.3 86 50.7 128.8 49.3C171.7 48 214.3 43 257.2 50.8C300 58.7 343 79.3 385.8 82C428.7 84.7 471.3 69.3 514.2 62.5C557 55.7 600 57.3 642.8 64.7C685.7 72 728.3 85 771.2 90.7C814 96.3 857 94.7 878.5 93.8L900 93L900 0L878.5 0C857 0 814 0 771.2 0C728.3 0 685.7 0 642.8 0C600 0 557 0 514.2 0C471.3 0 428.7 0 385.8 0C343 0 300 0 257.2 0C214.3 0 171.7 0 128.8 0C86 0 43 0 21.5 0L0 0Z" fill="#0d1216"></path></svg>